Coordinates
version=1
nRows=5
nColumns=46
inDegrees=yes

Units are S.I. units (second, meters, Newtons, ...)
Angles are in degrees.

endheader
time	pelvis_tilt	pelvis_list	pelvis_rotation	pelvis_tx	pelvis_ty	pelvis_tz	bb_angle	bb_tx	bb_ty	bb_tz	hip_flexion_r	hip_adduction_r	hip_rotation_r	knee_angle_r	knee_angle_r_beta	ankle_angle_r	subtalar_angle_r	mtp_angle_r	crank_angle_r	hip_flexion_l	hip_adduction_l	hip_rotation_l	knee_angle_l	knee_angle_l_beta	ankle_angle_l	subtalar_angle_l	mtp_angle_l	crank_angle_l	lumbar_extension	lumbar_bending	lumbar_rotation	arm_flex_r	arm_add_r	arm_rot_r	elbow_flex_r	pro_sup_r	wrist_flex_r	wrist_dev_r	arm_flex_l	arm_add_l	arm_rot_l	elbow_flex_l	pro_sup_l	wrist_flex_l	wrist_dev_l
      5.00500000	    -16.39215109	     -8.03635858	     -2.69880856	      0.21355296	      1.04374574	     -0.26714218	      0.00000000	      0.50000000	      0.00000000	      0.25000000	     77.80626112	      5.07175994	      6.06795771	    117.45914056	      2.05004874	      8.09483976	     -2.95966698	      0.00000000	      0.00000000	     43.30506087	    -12.79456702	     -2.11005453	     34.73456964	      0.60623260	     -6.17825805	      1.88418652	      0.00000000	      0.00000000	    -63.38058436	      5.92670710	      3.67377850	     83.04702641	    -10.09285087	     22.73540103	     61.54727088	     49.09326740	      0.00000000	      0.00000000	     85.40952539	    -39.36516565	     43.39884018	     76.34163004	     41.05980448	      0.00000000	      0.00000000
      5.01000000	    -16.34715016	     -8.04722605	     -3.26461505	      0.21400162	      1.04491243	     -0.26782466	      0.00000000	      0.50000000	      0.00000000	      0.25000000	     78.86324429	      5.63497605	      6.65212885	    117.77238985	      2.05551597	      8.96828584	     -1.71328103	      0.00000000	      0.00000000	     42.01183054	    -13.19006603	     -3.06864505	     33.90937114	      0.59183017	     -6.96914142	      2.06401971	      0.00000000	      0.00000000	    -63.64417994	      6.17498585	      3.98016613	     84.22459735	    -10.45221974	     25.26406922	     60.58753540	     49.24713709	      0.00000000	      0.00000000	     84.22716774	    -39.48063877	     41.72671757	     76.34196219	     41.32990507	      0.00000000	      0.00000000
      5.01500000	    -16.59705734	     -8.18072652	     -3.68726068	      0.21421621	      1.04567306	     -0.26834151	      0.00000000	      0.50000000	      0.00000000	      0.25000000	     80.15468554	      6.09615216	      6.86930879	    117.87186856	      2.05725220	      9.46954555	     -1.51826136	      0.00000000	      0.00000000	     41.22527460	    -13.56972529	     -3.65966888	     33.32051834	      0.58155275	     -7.59857780	      2.26887476	      0.00000000	      0.00000000	    -63.64786304	      6.54533677	      4.49789236	     84.71123966	    -10.29671952	     25.39743087	     60.69207728	     49.27402594	      0.00000000	      0.00000000	     83.90729354	    -39.67152606	     41.72354857	     76.19819609	     41.34321496	      0.00000000	      0.00000000
      5.02000000	    -16.74130264	     -8.21361228	     -4.19605318	      0.21455205	      1.04688475	     -0.26880878	      0.00000000	      0.50000000	      0.00000000	      0.25000000	     81.22531551	      6.55930236	      7.20236911	    117.82804201	      2.05648728	     10.31660886	     -0.70883376	      0.00000000	      0.00000000	     40.33160353	    -13.94150961	     -4.58848871	     32.88606933	      0.57397019	     -8.21558111	      2.39237468	      0.00000000	      0.00000000	    -63.75965961	      6.87538751	      4.67530479	     85.81028030	    -10.23807954	     27.42501614	     59.65496002	     49.31302217	      0.00000000	      0.00000000	     82.82553036	    -40.10500236	     40.34364925	     76.35784014	     41.67712892	      0.00000000	      0.00000000
      5.02500000	    -17.05116087	     -8.31005219	     -4.56277338	      0.21474250	      1.04792217	     -0.26917845	      0.00000000	      0.50000000	      0.00000000	      0.25000000	     82.37014954	      6.97356025	      7.32923125	    117.61165754	      2.05271066	     10.95247080	     -0.71067244	      0.00000000	      0.00000000	     39.75145639	    -14.24607265	     -5.14729494	     32.60785417	      0.56911442	     -8.69007177	      2.41173561	      0.00000000	      0.00000000	    -63.76556339	      7.19571020	      5.07811091	     86.29078757	    -10.08531941	     27.55131413	     59.74786439	     49.33205757	      0.00000000	      0.00000000	     82.59182987	    -40.28062704	     40.33031662	     76.22390400	     41.68647340	      0.00000000	      0.00000000
